<svg width="34" height="34" viewBox="0 0 34 34" fill="none" xmlns="http://www.w3.org/2000/svg">
<path fill-rule="evenodd" clip-rule="evenodd" d="M29.5263 17C29.5263 23.9181 23.9181 29.5263 17 29.5263C10.0819 29.5263 4.47368 23.9181 4.47368 17C4.47368 10.0819 10.0819 4.47368 17 4.47368C23.9181 4.47368 29.5263 10.0819 29.5263 17ZM34 17C34 26.3888 26.3888 34 17 34C7.61116 34 0 26.3888 0 17C0 7.61116 7.61116 0 17 0C26.3888 0 34 7.61116 34 17ZM17 22.3684C19.9649 22.3684 22.3684 19.9649 22.3684 17C22.3684 14.0351 19.9649 11.6316 17 11.6316C14.0351 11.6316 11.6316 14.0351 11.6316 17C11.6316 19.9649 14.0351 22.3684 17 22.3684Z" fill="white"/>
</svg>
