<svg width="50" height="50" viewBox="0 0 50 50" fill="none" xmlns="http://www.w3.org/2000/svg">
<g clip-path="url(#clip0_930_26)">
<path d="M37.5 16.6666H35.4167V12.5C35.4167 6.74998 30.75 2.08331 25 2.08331C19.25 2.08331 14.5834 6.74998 14.5834 12.5V16.6666H12.5C10.2084 16.6666 8.33335 18.5416 8.33335 20.8333V41.6666C8.33335 43.9583 10.2084 45.8333 12.5 45.8333H37.5C39.7917 45.8333 41.6667 43.9583 41.6667 41.6666V20.8333C41.6667 18.5416 39.7917 16.6666 37.5 16.6666ZM18.75 12.5C18.75 9.04165 21.5417 6.24998 25 6.24998C28.4584 6.24998 31.25 9.04165 31.25 12.5V16.6666H18.75V12.5ZM37.5 41.6666H12.5V20.8333H37.5V41.6666ZM25 35.4166C27.2917 35.4166 29.1667 33.5416 29.1667 31.25C29.1667 28.9583 27.2917 27.0833 25 27.0833C22.7084 27.0833 20.8334 28.9583 20.8334 31.25C20.8334 33.5416 22.7084 35.4166 25 35.4166Z" fill="black"/>
</g>
<defs>
<clipPath id="clip0_930_26">
<rect width="50" height="50" fill="white"/>
</clipPath>
</defs>
</svg>
