<svg width="51" height="50" viewBox="0 0 51 50" fill="none" xmlns="http://www.w3.org/2000/svg">
<g clip-path="url(#clip0_930_38)">
<path d="M14.9834 45.8333H19.15V50H14.9834V45.8333ZM23.3167 45.8333H27.4834V50H23.3167V45.8333ZM31.65 45.8333H35.8167V50H31.65V45.8333ZM33.7334 0.0208333L17.0667 0C14.775 0 12.9 1.875 12.9 4.16667V37.5C12.9 39.7917 14.775 41.6667 17.0667 41.6667H33.7334C36.025 41.6667 37.9 39.7917 37.9 37.5V4.16667C37.9 1.875 36.025 0.0208333 33.7334 0.0208333ZM33.7334 37.5H17.0667V35.4167H33.7334V37.5ZM33.7334 31.25H17.0667V10.4167H33.7334V31.25ZM33.7334 6.25H17.0667V4.16667H33.7334V6.25Z" fill="black"/>
</g>
<defs>
<clipPath id="clip0_930_38">
<rect width="50" height="50" fill="white" transform="translate(0.400024)"/>
</clipPath>
</defs>
</svg>
