<svg width="51" height="50" viewBox="0 0 51 50" fill="none" xmlns="http://www.w3.org/2000/svg">
<g clip-path="url(#clip0_930_33)">
<path d="M25.2 12.5C33.0959 12.5 40.1375 16.9375 43.575 23.9584C42.3459 26.5 40.6167 28.6875 38.5542 30.4584L41.4917 33.3959C44.3875 30.8334 46.6792 27.625 48.1167 23.9584C44.5125 14.8125 35.6167 8.33335 25.2 8.33335C22.5542 8.33335 20.0125 8.75002 17.6167 9.52085L21.0542 12.9584C22.4084 12.6875 23.7834 12.5 25.2 12.5ZM22.9709 14.875L27.2834 19.1875C28.4709 19.7084 29.4292 20.6667 29.95 21.8542L34.2625 26.1667C34.4292 25.4584 34.5542 24.7084 34.5542 23.9375C34.575 18.7709 30.3667 14.5834 25.2 14.5834C24.4292 14.5834 23.7 14.6875 22.9709 14.875ZM4.38752 8.06252L9.97086 13.6459C6.57502 16.3125 3.88752 19.8542 2.28336 23.9584C5.88752 33.1042 14.7834 39.5834 25.2 39.5834C28.3667 39.5834 31.4084 38.9792 34.2 37.875L41.325 45L44.2625 42.0625L7.32502 5.10419L4.38752 8.06252ZM20.0125 23.6875L25.45 29.125C25.3667 29.1459 25.2834 29.1667 25.2 29.1667C22.325 29.1667 19.9917 26.8334 19.9917 23.9584C19.9917 23.8542 20.0125 23.7917 20.0125 23.6875ZM12.9292 16.6042L16.575 20.25C16.0959 21.3959 15.825 22.6459 15.825 23.9584C15.825 29.125 20.0334 33.3334 25.2 33.3334C26.5125 33.3334 27.7625 33.0625 28.8875 32.5834L30.9292 34.625C29.0959 35.125 27.1792 35.4167 25.2 35.4167C17.3042 35.4167 10.2625 30.9792 6.82502 23.9584C8.28336 20.9792 10.4084 18.5209 12.9292 16.6042Z" fill="black"/>
</g>
<defs>
<clipPath id="clip0_930_33">
<rect width="50" height="50" fill="white" transform="translate(0.200027)"/>
</clipPath>
</defs>
</svg>
