<svg width="51" height="50" viewBox="0 0 51 50" fill="none" xmlns="http://www.w3.org/2000/svg">
<g clip-path="url(#clip0_930_21)">
<path d="M27.8833 10.5833C34.2583 11.5 39.3 16.5416 40.2167 22.9166H46.5292C45.55 13.0833 37.7167 5.24998 27.8833 4.27081V10.5833ZM40.2167 27.0833C39.3 33.4583 34.2583 38.5 27.8833 39.4166V45.7291C37.7167 44.75 45.55 36.9166 46.5292 27.0833H40.2167ZM23.7167 39.4166C16.6542 38.3958 11.2167 32.3333 11.2167 25C11.2167 17.6666 16.6542 11.6041 23.7167 10.5833V4.27081C13.1958 5.31248 4.96667 14.1875 4.96667 25C4.96667 35.8125 13.1958 44.6875 23.7167 45.7291V39.4166Z" fill="black"/>
</g>
<defs>
<clipPath id="clip0_930_21">
<rect width="50" height="50" fill="white" transform="translate(0.800018)"/>
</clipPath>
</defs>
</svg>
