<svg width="51" height="50" viewBox="0 0 51 50" fill="none" xmlns="http://www.w3.org/2000/svg">
<g clip-path="url(#clip0_930_16)">
<path d="M40.1833 31.25V39.5833H11.0166V31.25H40.1833ZM42.2666 27.0833H8.93331C7.78748 27.0833 6.84998 28.0208 6.84998 29.1667V41.6667C6.84998 42.8125 7.78748 43.75 8.93331 43.75H42.2666C43.4125 43.75 44.35 42.8125 44.35 41.6667V29.1667C44.35 28.0208 43.4125 27.0833 42.2666 27.0833ZM15.1833 38.5417C13.475 38.5417 12.0583 37.1458 12.0583 35.4167C12.0583 33.6875 13.475 32.2917 15.1833 32.2917C16.8916 32.2917 18.3083 33.6875 18.3083 35.4167C18.3083 37.1458 16.9125 38.5417 15.1833 38.5417ZM40.1833 10.4167V18.75H11.0166V10.4167H40.1833ZM42.2666 6.25H8.93331C7.78748 6.25 6.84998 7.1875 6.84998 8.33333V20.8333C6.84998 21.9792 7.78748 22.9167 8.93331 22.9167H42.2666C43.4125 22.9167 44.35 21.9792 44.35 20.8333V8.33333C44.35 7.1875 43.4125 6.25 42.2666 6.25ZM15.1833 17.7083C13.475 17.7083 12.0583 16.3125 12.0583 14.5833C12.0583 12.8542 13.475 11.4583 15.1833 11.4583C16.8916 11.4583 18.3083 12.875 18.3083 14.5833C18.3083 16.2917 16.9125 17.7083 15.1833 17.7083Z" fill="black"/>
</g>
<defs>
<clipPath id="clip0_930_16">
<rect width="50" height="50" fill="white" transform="translate(0.599976)"/>
</clipPath>
</defs>
</svg>
