<svg width="16" height="17" viewBox="0 0 16 17" fill="none" xmlns="http://www.w3.org/2000/svg">
<path d="M8 0.5C3.5912 0.5 0 4.0912 0 8.5C0 12.9088 3.5912 16.5 8 16.5C12.4088 16.5 16 12.9088 16 8.5C16 4.0912 12.4088 0.5 8 0.5ZM8 2.1C11.5441 2.1 14.4 4.9559 14.4 8.5C14.4 12.0441 11.5441 14.9 8 14.9C4.4559 14.9 1.6 12.0441 1.6 8.5C1.6 4.9559 4.4559 2.1 8 2.1ZM5.36562 4.73438L4.23438 5.86562L6.86875 8.5L4.23438 11.1344L5.36562 12.2656L8 9.63125L10.6344 12.2656L11.7656 11.1344L9.13125 8.5L11.7656 5.86562L10.6344 4.73438L8 7.36875L5.36562 4.73438Z" fill="#B8AFAF"/>
</svg>
